<svg width="55" height="61" viewBox="0 0 55 61" fill="none" xmlns="http://www.w3.org/2000/svg">
<path id="cake" d="M3.49707 60.25C2.64707 60.25 1.93457 59.9625 1.35957 59.3875C0.78457 58.8125 0.49707 58.1 0.49707 57.25V42.25C0.49707 40.6 1.08457 39.1875 2.25957 38.0125C3.43457 36.8375 4.84707 36.25 6.49707 36.25V24.25C6.49707 22.6 7.08457 21.1875 8.25957 20.0125C9.43457 18.8375 10.8471 18.25 12.4971 18.25H24.4971V13.9C23.5971 13.3 22.8721 12.575 22.3221 11.725C21.7721 10.875 21.4971 9.85 21.4971 8.65C21.4971 7.9 21.6471 7.1625 21.9471 6.4375C22.2471 5.7125 22.6971 5.05 23.2971 4.45L27.4971 0.25L31.6971 4.45C32.2971 5.05 32.7471 5.7125 33.0471 6.4375C33.3471 7.1625 33.4971 7.9 33.4971 8.65C33.4971 9.85 33.2221 10.875 32.6721 11.725C32.1221 12.575 31.3971 13.3 30.4971 13.9V18.25H42.4971C44.1471 18.25 45.5596 18.8375 46.7346 20.0125C47.9096 21.1875 48.4971 22.6 48.4971 24.25V36.25C50.1471 36.25 51.5596 36.8375 52.7346 38.0125C53.9096 39.1875 54.4971 40.6 54.4971 42.25V57.25C54.4971 58.1 54.2096 58.8125 53.6346 59.3875C53.0596 59.9625 52.3471 60.25 51.4971 60.25H3.49707ZM12.4971 36.25H42.4971V24.25H12.4971V36.25ZM6.49707 54.25H48.4971V42.25H6.49707V54.25Z" fill="#833838"/>
</svg>
