<svg width="63" height="61" viewBox="0 0 63 61" fill="none" xmlns="http://www.w3.org/2000/svg">
<path id="person_play" d="M12.0184 32.8183L0.0982666 21.6754L12.0184 10.5325L23.9386 21.6754L12.0184 32.8183ZM22.716 60.2468V45.9611C19.6086 45.723 16.5267 45.3778 13.4702 44.9254C10.4138 44.473 7.3828 43.8659 4.37729 43.104L5.90552 37.3897C10.1845 38.4849 14.4763 39.2349 18.7808 39.6397C23.0853 40.0444 27.4535 40.2468 31.8853 40.2468C36.3172 40.2468 40.6853 40.0444 44.9898 39.6397C49.2943 39.2349 53.5861 38.4849 57.8651 37.3897L59.3933 43.104C56.3878 43.8659 53.3569 44.473 50.3004 44.9254C47.244 45.3778 44.162 45.723 41.0547 45.9611V60.2468H22.716ZM12.0184 24.8183L15.3805 21.6754L12.0184 18.5325L8.65632 21.6754L12.0184 24.8183ZM31.8853 17.3897C29.3383 17.3897 27.1733 16.5563 25.3904 14.8897C23.6074 13.223 22.716 11.1992 22.716 8.81825C22.716 6.4373 23.6074 4.41349 25.3904 2.74683C27.1733 1.08016 29.3383 0.246826 31.8853 0.246826C34.4324 0.246826 36.5973 1.08016 38.3803 2.74683C40.1632 4.41349 41.0547 6.4373 41.0547 8.81825C41.0547 11.1992 40.1632 13.223 38.3803 14.8897C36.5973 16.5563 34.4324 17.3897 31.8853 17.3897ZM31.8853 37.3897C30.2043 37.3897 28.7652 36.8302 27.5681 35.7111C26.371 34.5921 25.7724 33.2468 25.7724 31.6754C25.7724 30.104 26.371 28.7587 27.5681 27.6397C28.7652 26.5206 30.2043 25.9611 31.8853 25.9611C33.5664 25.9611 35.0054 26.5206 36.2025 27.6397C37.3997 28.7587 37.9982 30.104 37.9982 31.6754C37.9982 33.2468 37.3997 34.5921 36.2025 35.7111C35.0054 36.8302 33.5664 37.3897 31.8853 37.3897ZM31.8853 11.6754C32.7513 11.6754 33.4772 11.4016 34.063 10.854C34.6489 10.3063 34.9418 9.62778 34.9418 8.81825C34.9418 8.00873 34.6489 7.33016 34.063 6.78254C33.4772 6.23492 32.7513 5.96111 31.8853 5.96111C31.0193 5.96111 30.2934 6.23492 29.7076 6.78254C29.1218 7.33016 28.8289 8.00873 28.8289 8.81825C28.8289 9.62778 29.1218 10.3063 29.7076 10.854C30.2934 11.4016 31.0193 11.6754 31.8853 11.6754ZM47.3204 31.6754L42.1244 23.104L47.3204 14.5325H57.7123L62.9082 23.104L57.7123 31.6754H47.3204ZM50.8353 25.9611H54.1974L55.8784 23.104L54.1974 20.2468H50.8353L49.1542 23.104L50.8353 25.9611Z" fill="#2B748B"/>
</svg>
