<svg width="60" height="61" viewBox="0 0 60 61" fill="none" xmlns="http://www.w3.org/2000/svg">
<path id="door_sliding" d="M20 33.5803C19.0556 33.5803 18.2639 33.2608 17.625 32.6219C16.9861 31.9831 16.6667 31.1914 16.6667 30.2469C16.6667 29.3025 16.9861 28.5108 17.625 27.8719C18.2639 27.2331 19.0556 26.9136 20 26.9136C20.9444 26.9136 21.7361 27.2331 22.375 27.8719C23.0139 28.5108 23.3333 29.3025 23.3333 30.2469C23.3333 31.1914 23.0139 31.9831 22.375 32.6219C21.7361 33.2608 20.9444 33.5803 20 33.5803ZM40 33.5803C39.0556 33.5803 38.2639 33.2608 37.625 32.6219C36.9861 31.9831 36.6667 31.1914 36.6667 30.2469C36.6667 29.3025 36.9861 28.5108 37.625 27.8719C38.2639 27.2331 39.0556 26.9136 40 26.9136C40.9444 26.9136 41.7361 27.2331 42.375 27.8719C43.0139 28.5108 43.3333 29.3025 43.3333 30.2469C43.3333 31.1914 43.0139 31.9831 42.375 32.6219C41.7361 33.2608 40.9444 33.5803 40 33.5803ZM0 60.2469V53.5803H3.33333V6.91361C3.33333 5.08028 3.98611 3.51084 5.29167 2.20528C6.59722 0.899726 8.16667 0.246948 10 0.246948H50C51.8333 0.246948 53.4028 0.899726 54.7083 2.20528C56.0139 3.51084 56.6667 5.08028 56.6667 6.91361V53.5803H60V60.2469H0ZM10 53.5803H26.6667V6.91361H10V53.5803ZM33.3333 53.5803H50V6.91361H33.3333V53.5803Z" fill="#6A4898"/>
</svg>
